<?xml version="1.0" standalone="no"?>
<!DOCTYPE svg PUBLIC "-//W3C//DTD SVG 20010904//EN"
 "http://www.w3.org/TR/2001/REC-SVG-20010904/DTD/svg10.dtd">
<svg version="1.0" xmlns="http://www.w3.org/2000/svg"
 width="72.000000pt" height="72.000000pt" viewBox="0 0 72.000000 72.000000"
 preserveAspectRatio="xMidYMid meet">
<metadata>
Created by potrace 1.11, written by Peter Selinger 2001-2013
</metadata>
<g transform="translate(0.000000,72.000000) scale(0.100000,-0.100000)"
fill="#000000" stroke="none">
<path d="M170 620 c0 -5 10 -10 23 -10 44 0 47 -13 47 -206 0 -100 -3 -189 -6
-198 -3 -9 -17 -16 -30 -16 -13 0 -24 -4 -24 -10 0 -6 67 -10 180 -10 l180 0
0 24 c0 13 3 38 6 55 4 20 3 31 -5 31 -6 0 -14 -14 -18 -30 -8 -42 -28 -50
-132 -50 l-91 0 0 95 0 95 73 0 c75 0 97 -9 97 -42 0 -10 5 -18 10 -18 6 0 10
32 10 75 0 72 -15 105 -22 48 -3 -28 -4 -28 -85 -31 l-83 -3 0 91 0 90 74 0
c114 0 136 -7 136 -41 0 -16 5 -29 10 -29 6 0 10 12 10 28 0 15 3 37 6 50 l6
22 -186 0 c-117 0 -186 -4 -186 -10z"/>
<path d="M70 90 c0 -6 108 -10 305 -10 197 0 305 4 305 10 0 6 -108 10 -305
10 -197 0 -305 -4 -305 -10z"/>
</g>
</svg>
